<?xml version="1.0" encoding="utf-8"?>
<!-- Generator: Adobe Illustrator 24.2.0, SVG Export Plug-In . SVG Version: 6.00 Build 0)  -->
<svg version="1.1" id="Ebene_1" xmlns="http://www.w3.org/2000/svg" xmlns:xlink="http://www.w3.org/1999/xlink" x="0px" y="0px"
	 viewBox="0 0 841.9 595.3" style="enable-background:new 0 0 841.9 595.3;" xml:space="preserve">
<path d="M107.2,446.4c3.6-13.7,5.5-27.8,4.5-41.8c-2.5-38.8,2.2-77.3,10.9-114.5c7.6-32.7,13.2-65.5,19.4-98.4
	c5.5-28.6,12.4-35,41.4-38.5c43.9-5.2,86.1-15.3,125.7-35.6c12.6-6.4,26.3-9.9,40.5-11.5c14.8-1.7,25.9,3.7,34.1,16
	c10.7,16.1,16.9,33.7,21,52.6c5.4,25,8.8,50.8,20.6,74.2c3,6,7.3,10.5,13.1,14c18.4,11.1,35.4,23.7,57.6,28.7
	c14.8,3.3,28.4,14.4,41.3,23.7c44.6,32,94.5,41.3,148.3,38.2c32.1-1.9,53.9,9.7,62.2,41.4c2.6,9.8,8.4,18.7,10.8,28.7
	c0,0.8,0,1.5,0,2.3c-2.8,21.9-17.3,34.7-35.1,44.9c-39.2,22.5-81.8,34.2-126.5,34.6c-120.8,1.1-241.5,0.7-362.3,0.1
	c-34.6-0.2-69.1-3.9-103.2-10.9c-11.7-2.4-18.3-8.4-20.1-20c-1.4-8.6-2.9-17.2-4.3-25.8C107.2,447.9,107.2,447.1,107.2,446.4z
	 M249.5,351.7c11.5,22.6,20.9,45.1,32.2,66.6c3.3,6.3,8.5,9.8,15.4,10.4c12.1,1.2,24.2,2.4,36.4,3.1c41.4,2.4,82.8,5.5,124.3,5.6
	c9.7,0,15.5-3.7,19.3-12.7c8.7-20.9,10.4-42.7,9.8-65c-0.3-9.4-4-15.9-12.3-20.2c-13.3-6.8-26.5-14.3-37-24.6
	c-18.8-18.4-40.9-25.2-66.4-24.3c-7.9,0.3-15.5-1.2-20.8-7.5c-5.8-6.9-11.9-7.1-19.1-2.7c-2.9,1.8-6.1,3.2-9.2,4.6
	c-31.5,14.1-63.4,26-99,22c-24.5-2.7-47.7-9.8-70.8-17.8c-3.4-1.2-8.2-4-10,0.8c-1.9,5.1,3.8,5.4,7,6.9c2.1,1,4.3,1.5,6.5,2.2
	c58.9,17.2,117.7,34.4,176.6,51.5c8.8,2.6,17.7,4.4,27,4.4c23.1-0.1,30.9-9.5,26.6-32.4c-0.4-1.9-0.9-3.7-1.2-5.6
	c-0.9-5.2,1.5-6.7,5.7-4.2c13.9,8.1,28.5,16.3,35,31.7c8.5,20.1,7.6,43-24.4,46c-6,0.6-12.2,0.3-18.2-0.2
	c-29.5-2.4-57.4-11.3-85-21.5C281.7,363,265.6,357.4,249.5,351.7z M729.9,439.9c-21,5-41.3,11.3-62.3,15.1
	c-54.9,10-110.5,12.4-166,13.7c-42.6,1-85.2-1.8-127.8-4c-69.6-3.6-138.9-10.9-208-19.7c-10.2-1.3-20.4-2.5-30.6-3.5
	c-6.1-0.6-9,2.1-9,8.6c0.1,20.6,4.7,26.3,25.1,29.8c30.9,5.3,62.1,7.2,93.3,7.4c115.8,0.7,231.6,0.8,347.4,0
	c41.6-0.3,81.5-10.5,118.4-30.5C717.9,452.7,725.4,448.3,729.9,439.9z M233.4,296.1c6.5,1.2,13.8-3.4,18.7-13.9
	c6.2-13.1,17-22.1,30-28.6c24.2-12,48.3-24.2,72.3-36.4c6.6-3.3,10.8-6.6,2.8-14.1c-8.2-7.6-6.7-18.2,2.5-25.6
	c4.8-3.8,8.8-7.5,6.4-14.2c-2.4-6.7-7-10.7-14.2-11.6c-8.1-1.1-15.9,0.6-23.6,3.1C273,172.9,220.2,197.5,167,221
	c-5.4,2.4-9.9,5.9-11.2,12.1c-2.3,10.4-4.3,20.8-6.3,31.3c-1.4,7.1,1.8,11.9,8.4,14.2C180.8,286.6,204,294,233.4,296.1z
	 M130.2,381.7c0,2.7-0.1,8.7,0,14.8c0.2,8.3,4.2,13.8,12.8,14.9c38.5,4.7,76.9,9.4,115.4,13.7c8.8,1,10.8-3.8,7.3-11.4
	c-4.9-10.7-9.9-21.4-14.9-32c-6.2-13.3-16.1-22.7-29.9-28.3c-23.6-9.5-47.1-19.4-70.7-28.8c-11.1-4.4-13.9-2.7-16,9.5
	C131.7,348.7,129.3,363.4,130.2,381.7z M356.2,249.3c0,28.7,1.5,30.3,27.8,30.3c2.3,0,4.6,0,6.9,0c7.9,0.1,15.5-1,19.8-8.7
	c4.2-7.6-2.1-12.8-4.9-18.8c-4-8.5-8.9-7.7-14.9-1.7c-4.2,4.3-8.9,8.3-13.7,12c-3.2,2.4-7.2,6.2-10.9,1.7c-3.1-3.7,0.5-7.2,3.1-9.9
	c6.8-7.2,13.7-14.2,20.9-21.1c7-6.8,8.8-14.1,3.2-22.4c-3.8-5.6-4.6-11.9-5.2-18.4c-1.6-19.1-5.4-37.7-15.9-54.2
	c-8.1-12.8-15.2-16-29.8-12.2c-10.3,2.7-20.8,5.5-30.1,10.4c-39.8,21.1-82.8,29.7-126.9,35.1c-18.8,2.3-25.2,10.1-26.3,29.3
	c-0.4,7,2.1,9.5,8.6,6.8c8.8-3.6,17.5-7.5,26.2-11.4c43-19.4,86.3-38.3,131.5-52.1c9.9-3,20-4.8,30.4-3.5c11.6,1.4,18.8,9,22.6,22.6
	c2.8,10.1,3.3,18.9-8.9,23.3c-2.5,0.9-4.7,3-3.9,6.2c0.5,2.1,2.6,2.8,4.5,2.8c6.6,0.2,12.2,1.3,13,9.5c0.7,8.1-3.4,13.3-10.4,15.9
	C358,226.3,354.1,237.4,356.2,249.3z M581.3,434.9c41.3-4.2,88.5-9.9,133.7-26.2c12-4.3,14.9-9.3,11.5-18.2
	c-4.2-10.6-12.2-14.1-22.8-9.1c-15.1,7-31.1,10.3-47.4,11.8c-18,1.6-35.3,3.7-50.7,14.8c-7.8,5.6-17.5,6-25.3-1.5
	c-10-9.5-9.8-9.7-14.9,3.2c-1,2.5-2,4.9-2.9,7.5C556.7,433.7,558.1,435.8,581.3,434.9z M131.3,424.1c6.5,6.8,12.9,6.5,18.6,7.3
	c82.2,11.3,164.8,20.2,247.7,23.5c63.4,2.5,127.1,3.5,190.6-1.6c40.6-3.3,81.1-8,120.3-19.9c6.9-2.1,13.7-4.7,20.3-7.6
	c3.2-1.4,8.3-3,6.2-7.9c-1.8-4-6-1.5-9.2-0.7c-0.7,0.2-1.4,0.5-2.1,0.8c-54.5,20.2-111.5,28.1-169.1,30.3
	c-53.6,2-107.2,1.2-160.9-1.4c-75.7-3.6-151-11-226.2-20.3C156.5,425.1,145.4,421.8,131.3,424.1z M517,437.4c3.4,0,6.8,0,10.3,0
	c16.7-0.1,17.4-0.7,22.1-16.7c3.1-10.6,5.8-21.4,12-30.7c5.1-7.6,2.5-11.7-5.1-14.7c-14.1-5.6-28.1-11.7-42.2-17.3
	c-12.5-5-15.5-3-15.8,10.8c-0.2,13.7-0.8,27.3-4.1,40.7C487.2,437.3,487.3,437.4,517,437.4z M342.7,250.9c0.3-11.5-2.3-13.4-11.8-9
	c-7.6,3.5-15,7.4-22.5,11.2c-14.5,7.4-29.6,14.1-40.6,26.9c-2.4,2.8-6.3,5.8-4.2,9.8c2.6,5,7.5,2.3,11.2,1.1
	c20.3-6.6,39.8-15.1,58.7-25.1C340,262.4,342.9,257.2,342.7,250.9z M683.9,375.5c-5.8-3.3-10.1-2.2-14.1-2.4
	c-20.1-1.2-40.2-2-60-6.2c-18.6-3.9-23,0-22.4,19.5c0.4,12.9,5.5,16.2,16.3,9.2c14.3-9.3,29.9-12.7,46.5-13.3
	C661.1,382,672,380.4,683.9,375.5z M479.9,319.6c0.7,5.3,0.9,12.8,9,12.5c7.3-0.2,13.9-6.7,14.1-12.8c0.3-7.8-8.9-9.5-15.3-10.5
	C480.8,307.7,480.3,313.7,479.9,319.6z M522.6,348.4c6.3-0.3,9.5-2.8,11.4-6.8c1.8-4-0.7-6.6-3.6-8.5c-4.9-3.3-9.9-8.8-16.1-3.8
	c-3.6,2.9-12.2,6-5.5,12.7C512.5,345.7,518.8,346.7,522.6,348.4z M551.9,347.5c-4.3,0.7-7.5,2.2-8.5,5.8c-1.1,4.1,2.7,5,5.3,6.1
	c7,2.9,14.1,5.6,21.2,8.2c2.2,0.8,4.6,0.7,6.1-1.5c1.5-2.2,1-4.8-0.8-6.2C568,354.4,559.8,350.6,551.9,347.5z M439.6,300
	c3.9,0.1,6-1.3,7.3-3.9c1.2-2.3,0.5-4.5-1.3-6.1c-5.4-4.7-11.1-9.2-18.2-10.7c-4.3-0.9-8.7,1.6-6.1,6.1
	C425.3,292.8,432.8,296.9,439.6,300z M468,311c-0.8-2.9-0.6-7.5-5.7-7.7c-4.3-0.1-7.2,3.1-7.1,7.3c0.1,4.4,3.7,6.6,7.7,7.1
	C467,318.3,467.7,315.1,468,311z"/>
</svg>
